<svg width="512" height="512" xmlns="http://www.w3.org/2000/svg">

 <g>
  <title>background</title>
  <rect fill="none" id="canvas_background" height="402" width="582" y="-1" x="-1"/>
 </g>
 <g>
  <title>Layer 1</title>
  <path fill="#eeeeee" id="XMLID_433_" d="m256,70.9c-94.5,0 -181.5,33 -250,88l31.1,31.1c60.4,-47.2 136.5,-75.4 218.9,-75.4s158.5,28.2 218.9,75.4l31.1,-31.1c-68.5,-55 -155.5,-88 -250,-88z" class="st0"/>
  <path fill="#eeeeee" id="XMLID_432_" d="m72.292126,225.192126l31.3,31.3c42.8,-30.5 95,-48.5 151.4,-48.5s108.6,18 151.4,48.5l31.3,-31.3c-51,-38.2 -114.2,-60.8 -182.7,-60.8s-131.7,22.6 -182.7,60.8z" class="st0"/>
  <path fill="#222222" id="XMLID_431_" d="m141.1,294l31.7,31.7c24.5,-14.1 52.9,-22.2 83.1,-22.2s58.6,8.1 83.1,22.2l31.7,-31.7c-33.1,-21.6 -72.5,-34.2 -114.9,-34.2s-81.6,12.6 -114.7,34.2z" class="st0"/>
  <circle fill="#222222" r="44.2" id="XMLID_430_" cy="396.9" cx="256" class="st0"/>
 </g>
</svg>